<mxfile host="Electron" modified="2024-01-21T07:29:23.040Z" agent="Mozilla/5.0 (Windows NT 10.0; Win64; x64) AppleWebKit/537.36 (KHTML, like Gecko) draw.io/22.1.21 Chrome/120.0.6099.109 Electron/28.1.0 Safari/537.36" etag="K36oEo79Ov3Dl2kS4ZVV" version="22.1.21" type="device">
  <diagram name="Page-1" id="c4acf3e9-155e-7222-9cf6-157b1a14988f">
    <mxGraphModel dx="1884" dy="1611" grid="1" gridSize="10" guides="1" tooltips="1" connect="1" arrows="1" fold="1" page="1" pageScale="1" pageWidth="850" pageHeight="1100" background="none" math="0" shadow="0">
      <root>
        <mxCell id="0" />
        <mxCell id="1" parent="0" />
        <mxCell id="vZpWlxIILtPbfnCsGK_n-5" value="" style="rounded=1;whiteSpace=wrap;html=1;arcSize=4;" parent="1" vertex="1">
          <mxGeometry x="-820" y="-1080" width="590" height="360" as="geometry" />
        </mxCell>
        <mxCell id="17acba5748e5396b-20" value="&lt;font style=&quot;font-size: 15px&quot;&gt;&lt;b&gt;Role&lt;/b&gt;&lt;/font&gt;" style="swimlane;html=1;fontStyle=0;childLayout=stackLayout;horizontal=1;startSize=26;fillColor=#dae8fc;horizontalStack=0;resizeParent=1;resizeLast=0;collapsible=1;marginBottom=0;swimlaneFillColor=#ffffff;rounded=0;shadow=0;comic=0;labelBackgroundColor=none;strokeWidth=1;fontFamily=Verdana;fontSize=10;align=center;strokeColor=#6c8ebf;" parent="1" vertex="1">
          <mxGeometry x="-800" y="-950" width="160" height="120" as="geometry" />
        </mxCell>
        <mxCell id="17acba5748e5396b-21" value="RoleId&lt;br&gt;Name&lt;br&gt;Type&lt;br&gt;UserType (Internal, Client..)&lt;br&gt;Fonction&lt;br&gt;Empowerment (Lvl 1-&amp;gt;3)&amp;nbsp;" style="text;html=1;strokeColor=none;fillColor=none;align=left;verticalAlign=top;spacingLeft=4;spacingRight=4;whiteSpace=wrap;overflow=hidden;rotatable=0;points=[[0,0.5],[1,0.5]];portConstraint=eastwest;" parent="17acba5748e5396b-20" vertex="1">
          <mxGeometry y="26" width="160" height="94" as="geometry" />
        </mxCell>
        <mxCell id="1fUnD-koabOUfnxtvVW--1" value="&lt;font style=&quot;font-size: 15px&quot;&gt;&lt;b&gt;User&lt;/b&gt;&lt;/font&gt;" style="swimlane;html=1;fontStyle=0;childLayout=stackLayout;horizontal=1;startSize=26;fillColor=#dae8fc;horizontalStack=0;resizeParent=1;resizeLast=0;collapsible=1;marginBottom=0;swimlaneFillColor=#ffffff;rounded=0;shadow=0;comic=0;labelBackgroundColor=none;strokeWidth=1;fontFamily=Verdana;fontSize=10;align=center;strokeColor=#6c8ebf;" parent="1" vertex="1">
          <mxGeometry x="-604" y="-1059" width="160" height="100" as="geometry">
            <mxRectangle x="-800" y="-920" width="110" height="30" as="alternateBounds" />
          </mxGeometry>
        </mxCell>
        <mxCell id="1fUnD-koabOUfnxtvVW--2" value="UserId&lt;br&gt;IdentityId&lt;br&gt;RoleId&lt;br&gt;&lt;span style=&quot;background-color: rgb(255, 255, 51);&quot;&gt;Status&lt;br&gt;&lt;/span&gt;" style="text;html=1;strokeColor=none;fillColor=none;align=left;verticalAlign=top;spacingLeft=4;spacingRight=4;whiteSpace=wrap;overflow=hidden;rotatable=0;points=[[0,0.5],[1,0.5]];portConstraint=eastwest;" parent="1fUnD-koabOUfnxtvVW--1" vertex="1">
          <mxGeometry y="26" width="160" height="74" as="geometry" />
        </mxCell>
        <mxCell id="1fUnD-koabOUfnxtvVW--4" value="&lt;font style=&quot;font-size: 15px&quot;&gt;&lt;b&gt;Permission&lt;/b&gt;&lt;/font&gt;" style="swimlane;html=1;fontStyle=0;childLayout=stackLayout;horizontal=1;startSize=26;fillColor=#dae8fc;horizontalStack=0;resizeParent=1;resizeLast=0;collapsible=1;marginBottom=0;swimlaneFillColor=#ffffff;rounded=0;shadow=0;comic=0;labelBackgroundColor=none;strokeWidth=1;fontFamily=Verdana;fontSize=10;align=center;strokeColor=#6c8ebf;" parent="1" vertex="1">
          <mxGeometry x="-747" y="-816" width="160" height="80" as="geometry" />
        </mxCell>
        <mxCell id="1fUnD-koabOUfnxtvVW--5" value="PermissionId&lt;br&gt;Name" style="text;html=1;strokeColor=none;fillColor=none;align=left;verticalAlign=top;spacingLeft=4;spacingRight=4;whiteSpace=wrap;overflow=hidden;rotatable=0;points=[[0,0.5],[1,0.5]];portConstraint=eastwest;" parent="1fUnD-koabOUfnxtvVW--4" vertex="1">
          <mxGeometry y="26" width="160" height="54" as="geometry" />
        </mxCell>
        <mxCell id="1fUnD-koabOUfnxtvVW--7" value="&lt;font style=&quot;font-size: 15px&quot;&gt;&lt;b&gt;FeaturePermission&lt;/b&gt;&lt;/font&gt;" style="swimlane;html=1;fontStyle=0;childLayout=stackLayout;horizontal=1;startSize=26;fillColor=#fff2cc;horizontalStack=0;resizeParent=1;resizeLast=0;collapsible=1;marginBottom=0;swimlaneFillColor=#ffffff;rounded=0;shadow=0;comic=0;labelBackgroundColor=none;strokeWidth=1;fontFamily=Verdana;fontSize=10;align=center;strokeColor=#d6b656;" parent="1" vertex="1">
          <mxGeometry x="-535" y="-816" width="180" height="80" as="geometry" />
        </mxCell>
        <mxCell id="1fUnD-koabOUfnxtvVW--8" value="FeatureId&lt;br&gt;PermissionId&lt;span style=&quot;white-space: pre&quot;&gt;&#x9;&lt;/span&gt;" style="text;html=1;strokeColor=none;fillColor=none;align=left;verticalAlign=top;spacingLeft=4;spacingRight=4;whiteSpace=wrap;overflow=hidden;rotatable=0;points=[[0,0.5],[1,0.5]];portConstraint=eastwest;" parent="1fUnD-koabOUfnxtvVW--7" vertex="1">
          <mxGeometry y="26" width="180" height="54" as="geometry" />
        </mxCell>
        <mxCell id="1fUnD-koabOUfnxtvVW--17" value="1" style="text;html=1;strokeColor=none;fillColor=none;align=center;verticalAlign=middle;whiteSpace=wrap;rounded=0;fontSize=12;" parent="1" vertex="1">
          <mxGeometry x="-606" y="-915" width="20" height="30" as="geometry" />
        </mxCell>
        <mxCell id="1fUnD-koabOUfnxtvVW--18" value="N" style="text;html=1;strokeColor=none;fillColor=none;align=center;verticalAlign=middle;whiteSpace=wrap;rounded=0;fontSize=12;" parent="1" vertex="1">
          <mxGeometry x="-640" y="-915" width="20" height="30" as="geometry" />
        </mxCell>
        <mxCell id="KNPXnJdpA10j_bAAyTkm-1" value="&lt;font style=&quot;font-size: 15px&quot;&gt;&lt;b&gt;Feature&lt;/b&gt;&lt;/font&gt;" style="swimlane;html=1;fontStyle=0;childLayout=stackLayout;horizontal=1;startSize=26;fillColor=#dae8fc;horizontalStack=0;resizeParent=1;resizeLast=0;collapsible=1;marginBottom=0;swimlaneFillColor=#ffffff;rounded=0;shadow=0;comic=0;labelBackgroundColor=none;strokeWidth=1;fontFamily=Verdana;fontSize=10;align=center;strokeColor=#6c8ebf;" parent="1" vertex="1">
          <mxGeometry x="-367" y="-916" width="100" height="80" as="geometry" />
        </mxCell>
        <mxCell id="KNPXnJdpA10j_bAAyTkm-2" value="FeatureId&lt;br&gt;Name&lt;br&gt;Beta" style="text;html=1;strokeColor=none;fillColor=none;align=left;verticalAlign=top;spacingLeft=4;spacingRight=4;whiteSpace=wrap;overflow=hidden;rotatable=0;points=[[0,0.5],[1,0.5]];portConstraint=eastwest;" parent="KNPXnJdpA10j_bAAyTkm-1" vertex="1">
          <mxGeometry y="26" width="100" height="54" as="geometry" />
        </mxCell>
        <mxCell id="KNPXnJdpA10j_bAAyTkm-4" value="&lt;font style=&quot;font-size: 15px&quot;&gt;&lt;b&gt;RoleFeature&lt;/b&gt;&lt;/font&gt;" style="swimlane;html=1;fontStyle=0;childLayout=stackLayout;horizontal=1;startSize=26;fillColor=#fff2cc;horizontalStack=0;resizeParent=1;resizeLast=0;collapsible=1;marginBottom=0;swimlaneFillColor=#ffffff;rounded=0;shadow=0;comic=0;labelBackgroundColor=none;strokeWidth=1;fontFamily=Verdana;fontSize=10;align=center;strokeColor=#d6b656;" parent="1" vertex="1">
          <mxGeometry x="-585" y="-933" width="160" height="73" as="geometry" />
        </mxCell>
        <mxCell id="KNPXnJdpA10j_bAAyTkm-5" value="RoleId&lt;br&gt;FeatureId" style="text;html=1;strokeColor=none;fillColor=none;align=left;verticalAlign=top;spacingLeft=4;spacingRight=4;whiteSpace=wrap;overflow=hidden;rotatable=0;points=[[0,0.5],[1,0.5]];portConstraint=eastwest;" parent="KNPXnJdpA10j_bAAyTkm-4" vertex="1">
          <mxGeometry y="26" width="160" height="44" as="geometry" />
        </mxCell>
        <mxCell id="KNPXnJdpA10j_bAAyTkm-9" style="edgeStyle=orthogonalEdgeStyle;rounded=0;orthogonalLoop=1;jettySize=auto;html=1;exitX=0;exitY=0.5;exitDx=0;exitDy=0;" parent="1" source="KNPXnJdpA10j_bAAyTkm-5" edge="1">
          <mxGeometry relative="1" as="geometry">
            <Array as="points">
              <mxPoint x="-640" y="-885" />
            </Array>
            <mxPoint x="-640" y="-885" as="targetPoint" />
          </mxGeometry>
        </mxCell>
        <mxCell id="KNPXnJdpA10j_bAAyTkm-10" style="edgeStyle=orthogonalEdgeStyle;rounded=0;orthogonalLoop=1;jettySize=auto;html=1;entryX=0;entryY=0.5;entryDx=0;entryDy=0;exitX=1;exitY=0.5;exitDx=0;exitDy=0;" parent="1" source="KNPXnJdpA10j_bAAyTkm-5" target="KNPXnJdpA10j_bAAyTkm-2" edge="1">
          <mxGeometry relative="1" as="geometry">
            <Array as="points" />
            <mxPoint x="-130" y="-690" as="sourcePoint" />
          </mxGeometry>
        </mxCell>
        <mxCell id="KNPXnJdpA10j_bAAyTkm-12" style="edgeStyle=orthogonalEdgeStyle;rounded=0;orthogonalLoop=1;jettySize=auto;html=1;" parent="1" source="KNPXnJdpA10j_bAAyTkm-1" target="1fUnD-koabOUfnxtvVW--8" edge="1">
          <mxGeometry relative="1" as="geometry" />
        </mxCell>
        <mxCell id="KNPXnJdpA10j_bAAyTkm-13" value="1" style="text;html=1;strokeColor=none;fillColor=none;align=center;verticalAlign=middle;whiteSpace=wrap;rounded=0;fontSize=12;" parent="1" vertex="1">
          <mxGeometry x="-426" y="-915" width="20" height="30" as="geometry" />
        </mxCell>
        <mxCell id="KNPXnJdpA10j_bAAyTkm-15" value="N" style="text;html=1;strokeColor=none;fillColor=none;align=center;verticalAlign=middle;whiteSpace=wrap;rounded=0;fontSize=12;" parent="1" vertex="1">
          <mxGeometry x="-315" y="-956" width="20" height="30" as="geometry" />
        </mxCell>
        <mxCell id="KNPXnJdpA10j_bAAyTkm-17" value="1" style="text;html=1;strokeColor=none;fillColor=none;align=center;verticalAlign=middle;whiteSpace=wrap;rounded=0;fontSize=12;" parent="1" vertex="1">
          <mxGeometry x="-315.00000000000006" y="-836" width="20" height="30" as="geometry" />
        </mxCell>
        <mxCell id="KNPXnJdpA10j_bAAyTkm-19" value="N" style="text;html=1;strokeColor=none;fillColor=none;align=center;verticalAlign=middle;whiteSpace=wrap;rounded=0;fontSize=12;" parent="1" vertex="1">
          <mxGeometry x="-355" y="-795" width="20" height="30" as="geometry" />
        </mxCell>
        <mxCell id="2blM8T-282DWZ7XkzXHZ-1" value="&lt;span style=&quot;font-size: 15px;&quot;&gt;&lt;b&gt;BetaFeature&lt;/b&gt;&lt;/span&gt;&lt;b style=&quot;border-color: var(--border-color); font-size: 15px;&quot;&gt;User&lt;/b&gt;" style="swimlane;html=1;fontStyle=0;childLayout=stackLayout;horizontal=1;startSize=26;fillColor=#fff2cc;horizontalStack=0;resizeParent=1;resizeLast=0;collapsible=1;marginBottom=0;swimlaneFillColor=#ffffff;rounded=0;shadow=0;comic=0;labelBackgroundColor=none;strokeWidth=1;fontFamily=Verdana;fontSize=10;align=center;strokeColor=#d6b656;" parent="1" vertex="1">
          <mxGeometry x="-392" y="-1024" width="150" height="65" as="geometry" />
        </mxCell>
        <mxCell id="2blM8T-282DWZ7XkzXHZ-2" value="UserId&lt;br&gt;FeatureId" style="text;html=1;strokeColor=none;fillColor=none;align=left;verticalAlign=top;spacingLeft=4;spacingRight=4;whiteSpace=wrap;overflow=hidden;rotatable=0;points=[[0,0.5],[1,0.5]];portConstraint=eastwest;" parent="2blM8T-282DWZ7XkzXHZ-1" vertex="1">
          <mxGeometry y="26" width="150" height="34" as="geometry" />
        </mxCell>
        <mxCell id="2blM8T-282DWZ7XkzXHZ-6" style="edgeStyle=orthogonalEdgeStyle;rounded=0;orthogonalLoop=1;jettySize=auto;html=1;exitX=0;exitY=0.5;exitDx=0;exitDy=0;entryX=1;entryY=0.5;entryDx=0;entryDy=0;" parent="1" source="2blM8T-282DWZ7XkzXHZ-2" target="1fUnD-koabOUfnxtvVW--2" edge="1">
          <mxGeometry relative="1" as="geometry">
            <Array as="points" />
            <mxPoint x="-586" y="-1005" as="sourcePoint" />
            <mxPoint x="-640" y="-1005" as="targetPoint" />
          </mxGeometry>
        </mxCell>
        <mxCell id="2blM8T-282DWZ7XkzXHZ-14" value="1" style="edgeLabel;html=1;align=center;verticalAlign=middle;resizable=0;points=[];" parent="2blM8T-282DWZ7XkzXHZ-6" vertex="1" connectable="0">
          <mxGeometry x="-0.8447" y="-2" relative="1" as="geometry">
            <mxPoint x="-10" y="-13" as="offset" />
          </mxGeometry>
        </mxCell>
        <mxCell id="2blM8T-282DWZ7XkzXHZ-15" value="N" style="edgeLabel;html=1;align=center;verticalAlign=middle;resizable=0;points=[];" parent="2blM8T-282DWZ7XkzXHZ-6" vertex="1" connectable="0">
          <mxGeometry x="0.851" relative="1" as="geometry">
            <mxPoint y="-15" as="offset" />
          </mxGeometry>
        </mxCell>
        <mxCell id="2blM8T-282DWZ7XkzXHZ-8" style="edgeStyle=orthogonalEdgeStyle;rounded=0;orthogonalLoop=1;jettySize=auto;html=1;exitX=0.5;exitY=1;exitDx=0;exitDy=0;" parent="1" source="2blM8T-282DWZ7XkzXHZ-1" target="KNPXnJdpA10j_bAAyTkm-1" edge="1">
          <mxGeometry relative="1" as="geometry">
            <Array as="points" />
            <mxPoint x="-411" y="-1005" as="sourcePoint" />
            <mxPoint x="-170" y="-735" as="targetPoint" />
          </mxGeometry>
        </mxCell>
        <mxCell id="2blM8T-282DWZ7XkzXHZ-16" value="Allow to link users to beta features directly" style="text;html=1;strokeColor=none;fillColor=none;align=center;verticalAlign=middle;whiteSpace=wrap;rounded=0;" parent="1" vertex="1">
          <mxGeometry x="-406" y="-1074" width="170" height="50" as="geometry" />
        </mxCell>
        <mxCell id="2blM8T-282DWZ7XkzXHZ-17" style="edgeStyle=orthogonalEdgeStyle;rounded=0;orthogonalLoop=1;jettySize=auto;html=1;" parent="1" source="1fUnD-koabOUfnxtvVW--4" target="1fUnD-koabOUfnxtvVW--7" edge="1">
          <mxGeometry relative="1" as="geometry">
            <Array as="points">
              <mxPoint x="-640" y="-740" />
              <mxPoint x="-640" y="-740" />
            </Array>
          </mxGeometry>
        </mxCell>
        <mxCell id="2blM8T-282DWZ7XkzXHZ-18" value="1" style="edgeLabel;html=1;align=center;verticalAlign=middle;resizable=0;points=[];" parent="2blM8T-282DWZ7XkzXHZ-17" vertex="1" connectable="0">
          <mxGeometry x="-0.7944" y="2" relative="1" as="geometry">
            <mxPoint as="offset" />
          </mxGeometry>
        </mxCell>
        <mxCell id="2blM8T-282DWZ7XkzXHZ-19" value="N" style="edgeLabel;html=1;align=center;verticalAlign=middle;resizable=0;points=[];" parent="2blM8T-282DWZ7XkzXHZ-17" vertex="1" connectable="0">
          <mxGeometry x="0.7946" y="4" relative="1" as="geometry">
            <mxPoint x="-13" y="-5" as="offset" />
          </mxGeometry>
        </mxCell>
        <mxCell id="zmCZ3EaC_dswEbBA8a0d-4" value="&lt;b&gt;&lt;font style=&quot;font-size: 18px;&quot;&gt;User.db&lt;/font&gt;&lt;/b&gt;" style="text;html=1;strokeColor=none;fillColor=none;align=center;verticalAlign=middle;whiteSpace=wrap;rounded=0;" parent="1" vertex="1">
          <mxGeometry x="-310" y="-750" width="70" height="25" as="geometry" />
        </mxCell>
        <mxCell id="zmCZ3EaC_dswEbBA8a0d-44" value="&lt;b&gt;Entity Tracking,&amp;nbsp;&lt;/b&gt;Applied on : &lt;br&gt;User, Role, Feature, Permission" style="text;html=1;strokeColor=none;fillColor=none;align=center;verticalAlign=middle;whiteSpace=wrap;rounded=0;" parent="1" vertex="1">
          <mxGeometry x="-220" y="-1003" width="210" height="63" as="geometry" />
        </mxCell>
        <mxCell id="zmCZ3EaC_dswEbBA8a0d-48" value="&lt;font style=&quot;font-size: 15px&quot;&gt;&lt;b&gt;TrackedEntity&lt;/b&gt;&lt;/font&gt;" style="swimlane;html=1;fontStyle=0;childLayout=stackLayout;horizontal=1;startSize=26;fillColor=#e1d5e7;horizontalStack=0;resizeParent=1;resizeLast=0;collapsible=1;marginBottom=0;swimlaneFillColor=#ffffff;rounded=0;shadow=0;comic=0;labelBackgroundColor=none;strokeWidth=1;fontFamily=Verdana;fontSize=10;align=center;strokeColor=#9673a6;" parent="1" vertex="1">
          <mxGeometry x="-195" y="-945" width="150" height="110" as="geometry" />
        </mxCell>
        <mxCell id="zmCZ3EaC_dswEbBA8a0d-49" value="CreateDate&lt;br&gt;CreatedBy&lt;br&gt;ModifyDate, &lt;br&gt;ModifyBy" style="text;html=1;strokeColor=none;fillColor=none;align=left;verticalAlign=top;spacingLeft=4;spacingRight=4;whiteSpace=wrap;overflow=hidden;rotatable=0;points=[[0,0.5],[1,0.5]];portConstraint=eastwest;" parent="zmCZ3EaC_dswEbBA8a0d-48" vertex="1">
          <mxGeometry y="26" width="150" height="84" as="geometry" />
        </mxCell>
        <mxCell id="zmCZ3EaC_dswEbBA8a0d-52" value="" style="rounded=1;whiteSpace=wrap;html=1;arcSize=4;" parent="1" vertex="1">
          <mxGeometry x="-240" y="-690" width="190" height="250" as="geometry" />
        </mxCell>
        <mxCell id="zmCZ3EaC_dswEbBA8a0d-53" value="&lt;font style=&quot;font-size: 15px&quot;&gt;&lt;b&gt;Identity&lt;/b&gt;&lt;/font&gt;" style="swimlane;html=1;fontStyle=0;childLayout=stackLayout;horizontal=1;startSize=26;fillColor=#dae8fc;horizontalStack=0;resizeParent=1;resizeLast=0;collapsible=1;marginBottom=0;swimlaneFillColor=#ffffff;rounded=0;shadow=0;comic=0;labelBackgroundColor=none;strokeWidth=1;fontFamily=Verdana;fontSize=10;align=center;strokeColor=#6c8ebf;" parent="1" vertex="1">
          <mxGeometry x="-225" y="-680" width="160" height="200" as="geometry">
            <mxRectangle x="-800" y="-920" width="110" height="30" as="alternateBounds" />
          </mxGeometry>
        </mxCell>
        <mxCell id="zmCZ3EaC_dswEbBA8a0d-54" value="IdentityId&lt;br&gt;Firstname&lt;br&gt;Name&lt;br&gt;Mail&lt;br&gt;Phone&lt;br&gt;Language&lt;br&gt;Active (bool)&lt;br&gt;emailConfirmed&amp;nbsp;(bool)&lt;br&gt;phoneConfirmed&amp;nbsp;(bool)&lt;br&gt;Blocked&amp;nbsp;&lt;span style=&quot;background-color: rgb(255, 255, 51);&quot;&gt;(bool)&lt;/span&gt;&lt;span style=&quot;background-color: rgb(255, 255, 51);&quot;&gt;&lt;br&gt;Claims: []&lt;br&gt;&lt;/span&gt;" style="text;html=1;strokeColor=none;fillColor=none;align=left;verticalAlign=top;spacingLeft=4;spacingRight=4;whiteSpace=wrap;overflow=hidden;rotatable=0;points=[[0,0.5],[1,0.5]];portConstraint=eastwest;" parent="zmCZ3EaC_dswEbBA8a0d-53" vertex="1">
          <mxGeometry y="26" width="160" height="174" as="geometry" />
        </mxCell>
        <mxCell id="zmCZ3EaC_dswEbBA8a0d-55" value="&lt;b&gt;&lt;font style=&quot;font-size: 18px;&quot;&gt;Identity.db&lt;/font&gt;&lt;/b&gt;" style="text;html=1;strokeColor=none;fillColor=none;align=center;verticalAlign=middle;whiteSpace=wrap;rounded=0;" parent="1" vertex="1">
          <mxGeometry x="-165" y="-470" width="100" height="25" as="geometry" />
        </mxCell>
        <mxCell id="2KqMln1QEZ4uNaoTRuN--1" value="XxxId = PK" style="rounded=1;whiteSpace=wrap;html=1;arcSize=26;" parent="1" vertex="1">
          <mxGeometry x="-182.5" y="-1060" width="125" height="50" as="geometry" />
        </mxCell>
        <mxCell id="kqKZRJek4tj01VtkNy_5-1" value="&lt;span style=&quot;font-size: 15px;&quot;&gt;&lt;b&gt;RoleUser&lt;/b&gt;&lt;/span&gt;" style="swimlane;html=1;fontStyle=0;childLayout=stackLayout;horizontal=1;startSize=26;fillColor=#fff2cc;horizontalStack=0;resizeParent=1;resizeLast=0;collapsible=1;marginBottom=0;swimlaneFillColor=#ffffff;rounded=0;shadow=0;comic=0;labelBackgroundColor=none;strokeWidth=1;fontFamily=Verdana;fontSize=10;align=center;strokeColor=#d6b656;" parent="1" vertex="1">
          <mxGeometry x="-780" y="-1055" width="120" height="75" as="geometry" />
        </mxCell>
        <mxCell id="kqKZRJek4tj01VtkNy_5-2" value="RolesRoleId&lt;br&gt;UsersUserId" style="text;html=1;strokeColor=none;fillColor=none;align=left;verticalAlign=top;spacingLeft=4;spacingRight=4;whiteSpace=wrap;overflow=hidden;rotatable=0;points=[[0,0.5],[1,0.5]];portConstraint=eastwest;" parent="kqKZRJek4tj01VtkNy_5-1" vertex="1">
          <mxGeometry y="26" width="120" height="44" as="geometry" />
        </mxCell>
        <mxCell id="kqKZRJek4tj01VtkNy_5-3" style="edgeStyle=orthogonalEdgeStyle;rounded=0;orthogonalLoop=1;jettySize=auto;html=1;entryX=0;entryY=0.5;entryDx=0;entryDy=0;exitX=1;exitY=0.5;exitDx=0;exitDy=0;" parent="1" source="kqKZRJek4tj01VtkNy_5-2" target="1fUnD-koabOUfnxtvVW--2" edge="1">
          <mxGeometry relative="1" as="geometry">
            <Array as="points" />
            <mxPoint x="-382" y="-997" as="sourcePoint" />
            <mxPoint x="-430" y="-997" as="targetPoint" />
          </mxGeometry>
        </mxCell>
        <mxCell id="kqKZRJek4tj01VtkNy_5-4" value="1" style="edgeLabel;html=1;align=center;verticalAlign=middle;resizable=0;points=[];" parent="kqKZRJek4tj01VtkNy_5-3" vertex="1" connectable="0">
          <mxGeometry x="-0.8447" y="-2" relative="1" as="geometry">
            <mxPoint x="1" y="-15" as="offset" />
          </mxGeometry>
        </mxCell>
        <mxCell id="kqKZRJek4tj01VtkNy_5-5" value="N" style="edgeLabel;html=1;align=center;verticalAlign=middle;resizable=0;points=[];" parent="kqKZRJek4tj01VtkNy_5-3" vertex="1" connectable="0">
          <mxGeometry x="0.851" relative="1" as="geometry">
            <mxPoint x="-3" y="-15" as="offset" />
          </mxGeometry>
        </mxCell>
        <mxCell id="kqKZRJek4tj01VtkNy_5-6" style="edgeStyle=orthogonalEdgeStyle;rounded=0;orthogonalLoop=1;jettySize=auto;html=1;entryX=0.5;entryY=0;entryDx=0;entryDy=0;exitX=0.5;exitY=1;exitDx=0;exitDy=0;" parent="1" source="kqKZRJek4tj01VtkNy_5-1" target="17acba5748e5396b-20" edge="1">
          <mxGeometry relative="1" as="geometry">
            <Array as="points" />
            <mxPoint x="-630" y="-997" as="sourcePoint" />
            <mxPoint x="-590" y="-997" as="targetPoint" />
          </mxGeometry>
        </mxCell>
        <mxCell id="kqKZRJek4tj01VtkNy_5-7" value="1" style="edgeLabel;html=1;align=center;verticalAlign=middle;resizable=0;points=[];" parent="kqKZRJek4tj01VtkNy_5-6" vertex="1" connectable="0">
          <mxGeometry x="-0.8447" y="-2" relative="1" as="geometry">
            <mxPoint x="-10" y="6" as="offset" />
          </mxGeometry>
        </mxCell>
        <mxCell id="kqKZRJek4tj01VtkNy_5-8" value="N" style="edgeLabel;html=1;align=center;verticalAlign=middle;resizable=0;points=[];" parent="kqKZRJek4tj01VtkNy_5-6" vertex="1" connectable="0">
          <mxGeometry x="0.851" relative="1" as="geometry">
            <mxPoint x="-11" y="-6" as="offset" />
          </mxGeometry>
        </mxCell>
        <mxCell id="kqKZRJek4tj01VtkNy_5-10" value="N" style="text;html=1;strokeColor=none;fillColor=none;align=center;verticalAlign=middle;whiteSpace=wrap;rounded=0;fontSize=12;" parent="1" vertex="1">
          <mxGeometry x="-387" y="-915" width="20" height="30" as="geometry" />
        </mxCell>
        <mxCell id="kqKZRJek4tj01VtkNy_5-11" value="1" style="text;html=1;strokeColor=none;fillColor=none;align=center;verticalAlign=middle;whiteSpace=wrap;rounded=0;fontSize=12;" parent="1" vertex="1">
          <mxGeometry x="-335" y="-962" width="20" height="30" as="geometry" />
        </mxCell>
      </root>
    </mxGraphModel>
  </diagram>
</mxfile>
